<svg version="1.0" xmlns="http://www.w3.org/2000/svg"
 width="128px" height="128px" viewBox="0 0 128 128"
 preserveAspectRatio="xMidYMid meet">

<g transform="translate(0,128) scale(0.2,-0.2)"
fill="#000000" stroke="none">
<path d="M131 630 c-44 -11 -81 -39 -106 -81 -17 -29 -20 -56 -24 -182 -5
-237 10 -295 89 -341 30 -18 56 -21 183 -25 237 -5 295 10 341 89 18 30 21 56
25 183 5 237 -10 295 -89 341 -31 19 -54 21 -210 23 -96 1 -190 -2 -209 -7z
m308 -170 c17 -9 18 -14 9 -41 -8 -22 -15 -28 -27 -24 -104 43 -196 -26 -157
-118 17 -43 41 -57 95 -57 l41 0 0 45 c0 45 0 45 35 45 l35 0 0 -70 0 -69 -42
-12 c-123 -33 -231 24 -245 129 -6 48 16 119 47 147 46 42 154 55 209 25z"/>
</g>
</svg>