<svg width="40" height="40" viewBox="0 0 40 40" fill="none" xmlns="http://www.w3.org/2000/svg">
<rect width="40" height="40" rx="10" fill="black"/>
<path d="M28.223 11.75L26.7045 15.8676C25.4331 14.8382 23.526 14.2206 21.4071 14.2206C17.6636 14.2206 14.803 16.451 14.803 20.5C14.803 24.1716 17.5576 26.7794 21.6543 26.7794C22.7138 26.7794 23.6673 26.6078 24.3383 26.402V20.6373L29 20.4657V29.25C27.2342 30.348 24.4796 31 21.4424 31C14.4498 31 10 26.5392 10 20.5C10 14.4265 14.6617 10 21.0539 10C24.0911 10 26.4572 10.5833 28.223 11.75Z" fill="white"/>
</svg>
